<svg width="422" height="364" viewBox="0 0 422 364" fill="none" xmlns="http://www.w3.org/2000/svg">
<path d="M421.571 342.586C421.571 354.259 328.325 363.723 213.3 363.723C98.2748 363.723 5.02881 354.259 5.02881 342.586C5.02881 330.911 98.2758 321.448 213.3 321.448C328.325 321.448 421.571 330.911 421.571 342.586Z" fill="#D6E3FE"/>
<path d="M114.846 264.841C112.216 265.092 109.668 266.103 106.999 266.089C103.781 266.072 104.14 255.812 103.755 253.212C102.803 246.821 100.145 240.157 94.4389 236.637C89.0519 233.314 81.8119 233.941 77.1239 238.08C74.0049 240.832 72.1219 244.605 70.3059 248.348C68.8409 246.822 67.2669 245.489 66.4059 244.647C61.1679 239.52 55.5399 234.717 49.5169 230.533C44.8899 227.315 38.6479 223.295 32.7549 223.672C26.1549 224.097 25.7259 231.509 26.4249 236.533C26.4839 236.962 26.5699 237.387 26.6429 237.813C24.8009 236.378 22.9289 234.983 21.0189 233.639C15.3069 229.623 7.2689 228.742 2.6889 234.788C2.5519 234.967 2.4619 235.144 2.3899 235.318C2.2509 235.452 2.1179 235.599 2.0019 235.788C-1.9131 242.089 1.53791 249.159 7.17391 253.091C9.13691 254.462 11.1799 255.73 13.2389 256.963C8.5029 257.781 3.76891 259.548 2.37491 263.801C0.585906 269.241 6.17791 273.808 9.63591 276.977C15.0429 281.927 21.7549 285.603 28.2529 288.922C31.6909 290.678 35.3009 292.627 39.0389 293.979C36.4039 296.89 33.8429 299.798 32.0489 303.41C29.2519 309.06 31.3899 316.119 35.9409 320.188C41.0399 324.746 48.1249 324.819 54.5149 323.718C56.9639 323.297 67.1199 319.176 68.3959 321.505C69.5469 323.607 69.6709 326.468 70.0799 328.78C70.6839 332.178 72.1429 335.362 74.5329 337.873C79.1179 342.68 86.1629 343.021 92.3399 342.293C99.4699 341.447 106.505 338.81 112.981 335.82C116.521 334.187 119.967 332.355 123.432 330.576C125.078 329.734 128.338 326.79 130.305 327.219C131.353 327.618 132.451 327.378 133.299 326.76C133.546 326.585 133.764 326.378 133.952 326.149L133.953 326.148C133.999 326.089 134.046 326.032 134.09 325.971C134.113 325.942 134.135 325.911 134.155 325.879C134.177 325.851 134.196 325.815 134.214 325.785C134.256 325.722 134.295 325.659 134.333 325.594C134.333 325.592 134.334 325.591 134.334 325.591C134.481 325.332 134.596 325.056 134.668 324.764C134.945 323.752 134.774 322.639 134.023 321.8C133.03 320.283 134.33 316.832 134.587 315.219C135.197 311.402 135.448 307.465 135.766 303.617C136.366 296.379 136.167 288.996 134.698 281.865C133.444 275.765 130.62 269.297 124.807 266.335C121.645 264.725 118.328 264.51 114.846 264.841Z" fill="#B0AEFA"/>
<path d="M64.9279 252.602C65.0059 251.767 64.3979 251.029 63.5659 250.949C62.7349 250.872 61.9939 251.478 61.9129 252.312L59.9209 273.017C53.9479 268.912 47.9699 264.802 41.9939 260.695L44.1439 238.316C44.2229 237.485 43.6129 236.746 42.7819 236.664C41.9479 236.586 41.2079 237.193 41.1289 238.027L39.1409 258.735C32.5119 254.177 25.8849 249.623 19.2569 245.069C19.2319 245.049 19.2049 245.034 19.1829 245.018C17.5729 243.911 15.8549 246.406 17.4659 247.514C17.4909 247.53 17.5149 247.547 17.5419 247.567C24.1689 252.122 30.7969 256.674 37.4249 261.23L18.8059 270.507C18.0589 270.879 17.7529 271.789 18.1259 272.537C18.4989 273.286 19.4089 273.592 20.1559 273.217L40.2769 263.19C46.2539 267.297 52.2269 271.406 58.2069 275.514L39.5879 284.788C38.8399 285.164 38.5359 286.073 38.9079 286.821C39.2849 287.571 40.1919 287.877 40.9409 287.501L61.0609 277.476C67.4979 281.899 73.9379 286.325 80.3729 290.749L61.7569 300.027C61.0099 300.398 60.7039 301.309 61.0799 302.058C61.4529 302.806 62.3589 303.109 63.1079 302.738L83.2309 292.71C90.2409 297.531 97.2519 302.348 104.264 307.17L85.6479 316.447C84.8989 316.817 84.5939 317.726 84.9669 318.475C85.3399 319.224 86.2499 319.53 86.9969 319.158L107.119 309.129C113.374 313.43 119.628 317.729 125.885 322.028C127.495 323.135 129.211 320.636 127.6 319.53C121.343 315.23 115.089 310.931 108.835 306.633L110.985 284.255C111.064 283.423 110.452 282.681 109.62 282.602C108.786 282.526 108.051 283.132 107.97 283.965L105.978 304.67C98.9669 299.852 91.9559 295.035 84.9439 290.214L87.0939 267.837C87.1719 267.003 86.5629 266.261 85.7309 266.183C84.8979 266.103 84.1589 266.713 84.0759 267.547L82.0879 288.251C75.6489 283.828 69.2109 279.402 62.7759 274.978L64.9279 252.602Z" fill="#9895FF"/>
<path d="M165.078 241.831C161.762 241.017 158.226 241.168 154.974 240.018C151.052 238.63 155.852 226.262 156.485 222.926C158.042 214.721 157.631 205.458 152.164 198.737C147.003 192.394 137.9 190.081 130.419 193.139C125.444 195.172 121.54 198.974 117.735 202.767C116.597 200.283 115.24 197.99 114.548 196.596C110.336 188.108 105.509 179.86 99.938 172.19C95.659 166.297 89.75 158.741 82.397 156.697C74.163 154.407 70.487 163.269 69.204 169.7C69.096 170.247 69.018 170.801 68.93 171.352C67.29 168.82 65.597 166.319 63.838 163.871C58.577 156.541 49.139 152.051 40.98 157.481C40.741 157.64 40.555 157.818 40.39 158.002C40.165 158.104 39.94 158.228 39.718 158.409C32.263 164.433 33.468 174.528 38.675 181.724C40.489 184.233 42.447 186.646 44.431 189.029C38.303 188.013 31.777 188.154 28.265 192.752C23.774 198.634 28.655 206.585 31.528 211.92C36.022 220.263 42.651 227.598 49.17 234.41C52.615 238.012 56.194 241.931 60.181 245.164C55.728 247.6 51.367 250.058 47.645 253.705C41.826 259.409 41.438 268.934 45.26 275.834C49.544 283.566 58.16 286.666 66.426 288.036C69.594 288.564 83.742 287.849 84.308 291.235C84.819 294.29 83.752 297.835 83.27 300.832C82.564 305.236 82.987 309.743 84.839 313.821C88.39 321.637 96.842 325.048 104.691 326.781C113.751 328.782 123.457 328.551 132.631 327.658C137.644 327.171 142.629 326.397 147.614 325.701C149.981 325.372 155.21 323.164 157.426 324.522C158.536 325.457 159.982 325.631 161.278 325.237C161.651 325.128 162.004 324.969 162.332 324.77L162.333 324.769C162.417 324.719 162.498 324.664 162.578 324.609C162.617 324.583 162.659 324.556 162.698 324.528C162.736 324.5 162.773 324.468 162.811 324.438C162.888 324.378 162.964 324.318 163.037 324.253C163.037 324.251 163.038 324.251 163.038 324.251C163.326 323.997 163.583 323.708 163.798 323.385C164.564 322.265 164.831 320.835 164.268 319.493C163.703 317.219 166.759 313.559 167.758 311.699C170.122 307.304 172.103 302.606 174.126 298.045C177.936 289.467 180.83 280.373 182.07 271.048C183.131 263.069 182.436 253.975 176.599 247.887C173.425 244.577 169.469 242.907 165.078 241.831Z" fill="#59B09F"/>
<path d="M109.365 205.674C109.815 204.693 109.386 203.531 108.404 203.079C107.422 202.628 106.26 203.057 105.807 204.038L94.5781 228.463C89.0311 220.91 83.4841 213.358 77.9361 205.805L90.0721 179.409C90.5241 178.428 90.0931 177.265 89.1111 176.813C88.1291 176.362 86.9671 176.792 86.5141 177.774L75.2861 202.198C69.1341 193.821 62.9821 185.445 56.8301 177.07C56.8061 177.038 56.7831 177.006 56.7591 176.972C55.2651 174.938 52.1111 177.256 53.6051 179.29C53.6281 179.322 53.6521 179.355 53.6761 179.387C59.8271 187.764 65.9801 196.139 72.1311 204.514L45.4671 207.921C44.3951 208.059 43.6371 209.038 43.7741 210.111C43.9121 211.184 44.8911 211.942 45.9631 211.804L74.7801 208.121C80.3271 215.674 85.8741 223.226 91.4221 230.78L64.7591 234.186C63.6871 234.324 62.9291 235.304 63.0671 236.377C63.2031 237.449 64.1841 238.207 65.2551 238.07L94.0721 234.387C100.047 242.523 106.024 250.659 111.999 258.794L85.3351 262.201C84.2641 262.339 83.5051 263.319 83.6431 264.392C83.7801 265.465 84.7601 266.222 85.8311 266.086L114.648 262.403C121.156 271.263 127.664 280.124 134.172 288.986L107.509 292.393C106.436 292.531 105.678 293.509 105.815 294.582C105.952 295.654 106.933 296.413 108.004 296.276L136.821 292.593C142.628 300.499 148.433 308.405 154.24 316.31C155.735 318.345 158.89 316.028 157.394 313.992C151.588 306.088 145.782 298.181 139.978 290.278L152.113 263.881C152.563 262.9 152.133 261.736 151.152 261.285C150.169 260.835 149.009 261.264 148.556 262.247L137.33 286.67C130.822 277.81 124.313 268.947 117.805 260.087L129.941 233.691C130.391 232.708 129.962 231.546 128.981 231.095C127.998 230.643 126.837 231.073 126.384 232.054L115.156 256.479C109.179 248.342 103.204 240.207 97.2291 232.069L109.365 205.674Z" fill="#529D8C"/>
<path d="M304.265 271.53C300.006 274.426 298.437 279.772 298.06 284.672C297.618 290.401 298.195 296.2 299.383 301.808C300.012 304.788 300.6 307.847 301.456 310.772C301.816 312.011 303.178 314.583 302.551 315.871C302.045 316.601 302.024 317.49 302.339 318.256C302.426 318.476 302.543 318.682 302.684 318.87V318.871C302.72 318.918 302.757 318.965 302.795 319.01C302.814 319.033 302.832 319.057 302.852 319.078C302.87 319.101 302.893 319.121 302.912 319.143C302.954 319.185 302.995 319.228 303.038 319.268L303.039 319.269C303.21 319.428 303.401 319.569 303.611 319.682C304.336 320.081 305.22 320.162 306.002 319.745C307.498 319.213 310.342 321.195 311.714 321.692C314.605 322.741 317.485 323.834 320.418 324.76C325.785 326.456 331.553 327.825 337.219 327.78C342.127 327.738 347.609 326.772 350.722 322.553C352.345 320.353 353.17 317.713 353.306 314.992C353.397 313.14 353.21 310.888 353.903 309.129C354.67 307.178 363.031 309.398 364.991 309.486C370.103 309.715 375.642 308.955 379.181 304.879C382.34 301.241 383.315 295.503 380.563 291.357C378.802 288.707 376.508 286.684 374.157 284.666C376.948 283.239 379.583 281.352 382.098 279.638C386.856 276.395 391.745 272.853 395.488 268.44C397.881 265.617 401.805 261.487 399.867 257.404C398.353 254.211 394.471 253.299 390.682 253.13C392.17 251.959 393.646 250.764 395.047 249.496C399.068 245.857 401.068 239.979 397.379 235.435C397.27 235.299 397.15 235.196 397.029 235.107C396.954 234.975 396.867 234.846 396.742 234.721C392.557 230.443 386.349 231.929 382.277 235.64C380.918 236.88 379.587 238.159 378.288 239.464C378.304 239.123 378.329 238.781 378.332 238.442C378.382 234.438 377.31 228.678 372.1 229.001C367.449 229.29 362.961 233.055 359.658 236.032C355.357 239.907 351.428 244.224 347.835 248.76C347.245 249.504 346.144 250.703 345.148 252.043C343.357 249.295 341.506 246.528 338.793 244.681C334.712 241.907 328.979 242.134 325.093 245.27C320.975 248.592 319.555 254.073 319.445 259.172C319.401 261.246 320.7 269.242 318.182 269.573C316.092 269.848 313.999 269.309 311.915 269.376C309.155 269.459 306.579 269.956 304.265 271.53Z" fill="#59B09F"/>
<path d="M349.78 254.838C349.635 254.194 350.04 253.555 350.683 253.408C351.326 253.264 351.966 253.668 352.113 254.311L355.725 270.326C359.996 266.517 364.266 262.709 368.538 258.9L364.635 241.593C364.49 240.947 364.895 240.31 365.537 240.163C366.183 240.018 366.822 240.423 366.968 241.066L370.579 257.08C375.315 252.856 380.053 248.633 384.789 244.408C384.807 244.392 384.827 244.376 384.844 244.361C385.993 243.334 387.586 245.119 386.435 246.145C386.417 246.161 386.4 246.178 386.381 246.193C381.645 250.418 376.907 254.641 372.17 258.865L387.666 264.279C388.289 264.497 388.618 265.179 388.4 265.801C388.183 266.426 387.501 266.754 386.877 266.536L370.129 260.683C365.859 264.492 361.588 268.3 357.316 272.109L372.813 277.525C373.436 277.742 373.763 278.425 373.545 279.047C373.327 279.672 372.647 280.001 372.022 279.781L355.276 273.928C350.674 278.031 346.073 282.133 341.473 286.237L356.968 291.652C357.589 291.871 357.919 292.551 357.701 293.175C357.482 293.8 356.802 294.128 356.178 293.909L339.429 288.056C334.419 292.525 329.407 296.991 324.397 301.46L339.892 306.877C340.515 307.095 340.843 307.776 340.626 308.398C340.408 309.021 339.726 309.351 339.103 309.133L322.355 303.279C317.883 307.265 313.414 311.252 308.943 315.238C307.793 316.264 306.2 314.48 307.352 313.453C311.823 309.468 316.293 305.48 320.763 301.497L316.859 284.188C316.715 283.545 317.12 282.904 317.763 282.759C318.409 282.616 319.045 283.019 319.192 283.662L322.804 299.677C327.815 295.208 332.825 290.74 337.838 286.272L333.935 268.964C333.79 268.321 334.194 267.68 334.838 267.534C335.482 267.389 336.121 267.794 336.267 268.438L339.878 284.452C344.479 280.349 349.082 276.246 353.681 272.142L349.78 254.838Z" fill="#529D8C"/>
<path d="M317.527 133.314C315.626 135.91 315.819 139.384 316.623 142.347C317.561 145.812 319.113 149.107 320.985 152.158C321.979 153.781 322.964 155.458 324.081 157.002C324.553 157.655 325.892 158.886 325.791 159.774C325.648 160.31 325.819 160.838 326.166 161.222C326.263 161.334 326.375 161.431 326.497 161.512L326.498 161.513C326.529 161.533 326.56 161.553 326.593 161.571C326.608 161.581 326.624 161.592 326.64 161.599C326.657 161.609 326.672 161.617 326.689 161.625C326.722 161.641 326.755 161.657 326.789 161.672H326.79C326.924 161.731 327.066 161.774 327.213 161.795C327.724 161.879 328.261 161.741 328.633 161.332C329.404 160.706 331.492 161.278 332.404 161.284C334.325 161.297 336.248 161.338 338.169 161.27C341.684 161.148 345.365 160.746 348.691 159.534C351.572 158.482 354.597 156.767 355.547 153.634C356.041 151.998 355.976 150.272 355.486 148.642C355.153 147.534 354.571 146.247 354.611 145.066C354.655 143.757 360.041 143.315 361.213 142.956C364.27 142.022 367.372 140.415 368.604 137.276C369.704 134.474 369.077 130.893 366.59 129.027C364.997 127.835 363.225 127.125 361.418 126.428C362.763 125.004 363.919 123.343 365.042 121.806C367.165 118.902 369.303 115.793 370.582 112.413C371.4 110.25 372.848 106.998 370.852 105.001C369.293 103.438 366.817 103.712 364.551 104.405C365.183 103.404 365.801 102.393 366.361 101.353C367.968 98.37 367.917 94.491 364.794 92.588C364.701 92.531 364.61 92.496 364.52 92.467C364.449 92.407 364.37 92.349 364.27 92.3C360.912 90.656 357.569 92.829 355.947 95.865C355.405 96.882 354.891 97.911 354.399 98.952C354.336 98.747 354.281 98.542 354.211 98.34C353.402 95.973 351.567 92.807 348.567 94.086C345.89 95.229 344.036 98.386 342.713 100.829C340.991 104.009 339.581 107.373 338.414 110.793C338.223 111.355 337.825 112.291 337.519 113.288C335.889 112.045 334.222 110.802 332.238 110.284C329.256 109.503 325.928 110.836 324.296 113.495C322.567 116.312 322.877 119.836 323.879 122.861C324.286 124.09 326.724 128.526 325.312 129.249C324.139 129.848 322.794 129.969 321.581 130.443C319.973 131.071 318.56 131.902 317.527 133.314Z" fill="#B0AEFA"/>
<path d="M340.831 113.968C340.611 113.618 340.715 113.157 341.063 112.938C341.412 112.718 341.873 112.822 342.093 113.17L347.57 121.841C349.287 118.706 351.005 115.571 352.723 112.434L346.805 103.062C346.585 102.713 346.69 102.252 347.037 102.032C347.387 101.812 347.848 101.916 348.067 102.264L353.542 110.937C355.447 107.459 357.353 103.982 359.258 100.505C359.265 100.491 359.273 100.478 359.279 100.466C359.742 99.621 361.052 100.338 360.59 101.183C360.582 101.196 360.575 101.209 360.568 101.223C358.662 104.7 356.757 108.177 354.851 111.654L365.107 111.601C365.518 111.599 365.855 111.932 365.857 112.344C365.86 112.756 365.527 113.093 365.115 113.094L354.031 113.15C352.313 116.286 350.596 119.42 348.877 122.557L359.133 122.503C359.545 122.502 359.881 122.836 359.884 123.247C359.885 123.66 359.553 123.996 359.14 123.997L348.057 124.054C346.206 127.431 344.355 130.809 342.505 134.186L352.76 134.135C353.171 134.133 353.508 134.465 353.51 134.879C353.512 135.291 353.18 135.626 352.768 135.629L341.683 135.685C339.669 139.365 337.653 143.042 335.638 146.722L345.892 146.67C346.305 146.667 346.641 146.999 346.643 147.412C346.645 147.824 346.312 148.161 345.901 148.163L334.816 148.219C333.019 151.501 331.221 154.782 329.422 158.065C328.959 158.91 327.649 158.192 328.111 157.347C329.91 154.065 331.708 150.783 333.506 147.502L327.588 138.13C327.369 137.781 327.474 137.318 327.822 137.099C328.172 136.881 328.63 136.984 328.85 137.332L334.327 146.003C336.343 142.325 338.358 138.648 340.374 134.968L334.456 125.596C334.236 125.246 334.34 124.785 334.688 124.566C335.038 124.345 335.498 124.45 335.719 124.799L341.194 133.47C343.046 130.093 344.896 126.715 346.746 123.338L340.831 113.968Z" fill="#9895FF"/>
<path d="M98.652 18.165H89.813L97.52 0.240967H106.359L98.652 18.165Z" fill="#B0AEFA"/>
<path d="M111.472 18.165H102.633L110.341 0.240967H119.18L111.472 18.165Z" fill="#B0AEFA"/>
<path d="M124.292 18.165H115.453L123.161 0.240967H132L124.292 18.165Z" fill="#B0AEFA"/>
<path opacity="0.4" d="M137.112 18.165H128.273L135.98 0.240967H144.82L137.112 18.165Z" fill="#B0AEFA"/>
<path opacity="0.4" d="M149.933 18.165H141.094L148.801 0.240967H157.641L149.933 18.165Z" fill="#B0AEFA"/>
<path opacity="0.4" d="M162.753 18.165H153.914L161.622 0.240967H170.461L162.753 18.165Z" fill="#B0AEFA"/>
<path opacity="0.4" d="M175.574 18.165H166.734L174.442 0.240967H183.281L175.574 18.165Z" fill="#B0AEFA"/>
<path d="M388.467 53.762C388.467 57.847 385.156 61.158 381.072 61.158H344.541C340.455 61.158 337.145 57.846 337.145 53.762V27.054C337.145 22.969 340.456 19.658 344.541 19.658H381.072C385.156 19.658 388.467 22.969 388.467 27.054V53.762Z" stroke="#B0AEFA" stroke-miterlimit="10"/>
<path d="M370.082 38.475H355.529V42.341H370.082V38.475Z" fill="#B0AEFA"/>
<path d="M364.738 33.132H360.873V47.684H364.738V33.132Z" fill="#B0AEFA"/>
<path d="M111.653 65.598V61.696H106.019C105.819 60.883 105.497 60.118 105.074 59.42L109.06 55.434L106.301 52.674L102.315 56.66C101.617 56.236 100.853 55.914 100.039 55.714V50.079H96.136V55.714C95.322 55.914 94.558 56.235 93.861 56.659L89.874 52.672L87.114 55.432L91.101 59.419C90.677 60.117 90.356 60.881 90.155 61.694H84.52V65.597H90.155C90.355 66.41 90.676 67.175 91.1 67.872L87.114 71.859L89.874 74.619L93.86 70.632C94.558 71.056 95.322 71.378 96.135 71.578V77.213H100.037V71.578C100.851 71.378 101.616 71.057 102.314 70.633L106.3 74.619L109.06 71.86L105.074 67.874C105.498 67.176 105.82 66.412 106.02 65.598H111.653ZM98.087 67.363C96.037 67.363 94.37 65.696 94.37 63.646C94.37 61.596 96.037 59.929 98.087 59.929C100.136 59.929 101.803 61.596 101.803 63.646C101.803 65.696 100.136 67.363 98.087 67.363Z" fill="#B0AEFA"/>
<path d="M221.146 12.684V10.341H217.763C217.643 9.85297 217.45 9.39397 217.196 8.97397L219.59 6.58097L217.933 4.92397L215.54 7.31797C215.121 7.06297 214.662 6.86997 214.174 6.74997V3.36597H211.83V6.74997C211.342 6.86997 210.883 7.06297 210.464 7.31697L208.07 4.92297L206.413 6.57997L208.807 8.97397C208.552 9.39297 208.36 9.85197 208.24 10.34H204.856V12.684H208.24C208.36 13.173 208.553 13.631 208.807 14.05L206.413 16.444L208.07 18.101L210.464 15.707C210.882 15.961 211.341 16.155 211.83 16.275V19.658H214.173V16.275C214.662 16.154 215.12 15.962 215.54 15.707L217.933 18.1L219.59 16.443L217.196 14.05C217.451 13.631 217.643 13.172 217.764 12.683L221.146 12.684ZM213 13.744C211.769 13.744 210.769 12.743 210.769 11.513C210.769 10.283 211.769 9.28197 213 9.28197C214.23 9.28197 215.231 10.283 215.231 11.513C215.231 12.743 214.23 13.744 213 13.744Z" fill="#B0AEFA"/>
<path d="M310.467 40.171H143.598C142.654 40.171 141.74 40.297 140.863 40.513L140.416 38.646L135.981 43.084C135.649 43.379 135.336 43.693 135.04 44.025L134.941 44.124L134.942 44.134C133.197 46.145 132.134 48.763 132.134 51.635V340.79C132.134 347.122 137.267 352.254 143.599 352.254H310.468C316.8 352.254 321.932 347.122 321.932 340.79V51.636C321.931 45.304 316.799 40.171 310.467 40.171Z" fill="#7CA1D6"/>
<path d="M326.345 336.376C326.345 342.708 321.212 347.84 314.88 347.84H148.011C141.68 347.84 136.547 342.708 136.547 336.376V47.2219C136.547 40.8899 141.68 35.7579 148.011 35.7579H314.88C321.212 35.7579 326.345 40.8909 326.345 47.2219V336.376Z" fill="url(#paint0_linear_77_774)"/>
<path d="M264.574 55.745C264.574 57.106 263.471 58.209 262.11 58.209H199.232C197.871 58.209 196.768 57.106 196.768 55.745C196.768 54.385 197.871 53.282 199.232 53.282H262.11C263.471 53.281 264.574 54.384 264.574 55.745Z" fill="white"/>
<path d="M282.719 55.7449C282.719 58.1339 280.782 60.0709 278.394 60.0709C276.005 60.0709 274.068 58.1339 274.068 55.7449C274.068 53.3559 276.006 51.4199 278.394 51.4199C280.782 51.4189 282.719 53.3559 282.719 55.7449Z" fill="white"/>
<path d="M202.134 144.664C202.134 150.143 197.693 154.585 192.213 154.585H77.5699C72.0909 154.585 67.6489 150.143 67.6489 144.664V100.394C67.6489 94.914 72.0909 90.473 77.5699 90.473H192.213C197.693 90.473 202.134 94.915 202.134 100.394V144.664Z" fill="#5B8CDD"/>
<path d="M205.444 141.353C205.444 146.833 201.002 151.274 195.523 151.274H80.88C75.401 151.274 70.959 146.833 70.959 141.353V97.083C70.959 91.604 75.4 87.162 80.88 87.162H195.523C201.002 87.162 205.444 91.604 205.444 97.083V141.353Z" fill="#A9C7F9"/>
<path d="M115.145 131.679C112.94 131.679 110.893 131.338 109.003 130.655C107.14 129.946 105.512 128.949 104.121 127.663C102.756 126.377 101.693 124.855 100.932 123.096C100.171 121.338 99.7906 119.396 99.7906 117.27C99.7906 115.144 100.171 113.202 100.932 111.443C101.693 109.685 102.756 108.162 104.121 106.876C105.512 105.59 107.14 104.606 109.003 103.924C110.893 103.215 112.94 102.861 115.145 102.861C117.848 102.861 120.236 103.333 122.31 104.278C124.409 105.223 126.142 106.587 127.506 108.372L121.64 113.608C120.827 112.585 119.921 111.797 118.924 111.246C117.953 110.669 116.851 110.38 115.617 110.38C114.646 110.38 113.767 110.538 112.979 110.852C112.192 111.167 111.509 111.627 110.932 112.23C110.381 112.834 109.948 113.569 109.633 114.435C109.318 115.275 109.16 116.22 109.16 117.27C109.16 118.319 109.318 119.277 109.633 120.144C109.948 120.983 110.381 121.705 110.932 122.309C111.509 122.913 112.192 123.372 112.979 123.687C113.767 124.002 114.646 124.159 115.617 124.159C116.851 124.159 117.953 123.884 118.924 123.332C119.921 122.755 120.827 121.955 121.64 120.931L127.506 126.167C126.142 127.926 124.409 129.29 122.31 130.261C120.236 131.206 117.848 131.679 115.145 131.679ZM142.748 131.049L146.173 103.49H152.472L149.047 131.049H142.748ZM128.457 125.655V119.75H155.228V125.655H128.457ZM132.551 131.049L135.976 103.49H142.275L138.85 131.049H132.551ZM129.795 114.789V108.884H156.566V114.789H129.795Z" fill="white"/>
<path opacity="0.4" d="M314.086 81.355H222.195V87.26H314.086V81.355Z" fill="white"/>
<path opacity="0.4" d="M314.086 92.256H275.297V98.161H314.086V92.256Z" fill="white"/>
<path opacity="0.4" d="M314.085 120.873H298.354V126.777H314.085V120.873Z" fill="white"/>
<path opacity="0.4" d="M314.086 104.175H246.166V110.08H314.086V104.175Z" fill="white"/>
<path opacity="0.4" d="M287.867 120.873H226.28V126.777H287.867V120.873Z" fill="white"/>
<path opacity="0.4" d="M246.327 144.481V186.371H180.271V227.156" stroke="white" stroke-width="4" stroke-miterlimit="10"/>
<path opacity="0.4" d="M266.721 289.895V244.59H225.935" stroke="white" stroke-width="4" stroke-miterlimit="10"/>
<path d="M226.684 267.696C226.684 273.176 222.242 277.617 216.762 277.617H117.567C112.088 277.617 107.646 273.176 107.646 267.696V223.426C107.646 217.947 112.087 213.505 117.567 213.505H216.762C222.241 213.505 226.684 217.946 226.684 223.426V267.696Z" fill="#004E50"/>
<path d="M229.993 264.387C229.993 269.867 225.551 274.308 220.071 274.308H120.876C115.397 274.308 110.955 269.867 110.955 264.387V220.117C110.955 214.637 115.397 210.196 120.876 210.196H220.071C225.55 210.196 229.993 214.637 229.993 220.117V264.387Z" fill="#59B09F"/>
<path d="M117.897 253V229.703H124.354L133.673 244.912H130.278L139.331 229.703H145.787L145.854 253H138.698L138.632 240.486H139.763L133.573 250.903H130.112L123.655 240.486H125.053V253H117.897ZM153.412 259.79C152.414 259.79 151.393 259.634 150.351 259.324C149.33 259.035 148.509 258.647 147.888 258.159L150.384 253C150.761 253.288 151.183 253.521 151.649 253.699C152.137 253.876 152.603 253.965 153.046 253.965C153.712 253.965 154.222 253.821 154.577 253.533C154.932 253.266 155.221 252.856 155.443 252.301L156.208 250.371L156.741 249.639L162.565 234.795H169.687L162.199 253.366C161.533 255.03 160.757 256.328 159.869 257.26C159.004 258.192 158.028 258.847 156.94 259.224C155.875 259.601 154.699 259.79 153.412 259.79ZM155.176 253.832L147.255 234.795H154.977L160.435 248.973L155.176 253.832ZM179.757 253.533C177.805 253.533 175.919 253.311 174.099 252.867C172.28 252.423 170.782 251.846 169.606 251.136L172.135 245.412C173.245 246.055 174.476 246.577 175.83 246.976C177.205 247.353 178.537 247.542 179.824 247.542C180.578 247.542 181.166 247.497 181.588 247.409C182.031 247.298 182.353 247.153 182.553 246.976C182.752 246.776 182.852 246.543 182.852 246.277C182.852 245.855 182.619 245.523 182.153 245.279C181.687 245.034 181.066 244.835 180.29 244.679C179.535 244.502 178.703 244.324 177.793 244.147C176.884 243.947 175.963 243.692 175.031 243.381C174.121 243.071 173.278 242.66 172.502 242.15C171.747 241.64 171.137 240.974 170.671 240.153C170.205 239.31 169.972 238.267 169.972 237.025C169.972 235.582 170.372 234.273 171.17 233.097C171.991 231.899 173.2 230.945 174.798 230.235C176.418 229.525 178.426 229.17 180.822 229.17C182.397 229.17 183.951 229.336 185.482 229.669C187.013 230.002 188.388 230.512 189.609 231.2L187.246 236.891C186.092 236.315 184.971 235.882 183.884 235.593C182.819 235.305 181.776 235.161 180.756 235.161C180.001 235.161 179.402 235.227 178.958 235.36C178.515 235.494 178.193 235.671 177.993 235.893C177.816 236.115 177.727 236.359 177.727 236.625C177.727 237.025 177.96 237.346 178.426 237.59C178.892 237.812 179.502 238.001 180.256 238.156C181.033 238.311 181.876 238.478 182.786 238.655C183.718 238.833 184.638 239.077 185.548 239.388C186.458 239.698 187.29 240.109 188.044 240.619C188.821 241.129 189.442 241.795 189.908 242.616C190.374 243.437 190.607 244.458 190.607 245.678C190.607 247.098 190.197 248.407 189.376 249.605C188.577 250.781 187.379 251.735 185.781 252.467C184.184 253.178 182.176 253.533 179.757 253.533ZM200.533 253.333C198.957 253.333 197.493 252.956 196.139 252.201C194.808 251.447 193.743 250.371 192.944 248.973C192.146 247.553 191.746 245.867 191.746 243.914C191.746 241.961 192.146 240.286 192.944 238.888C193.743 237.468 194.808 236.381 196.139 235.627C197.493 234.85 198.957 234.462 200.533 234.462C202.219 234.462 203.561 234.795 204.56 235.46C205.58 236.126 206.313 237.158 206.756 238.556C207.222 239.931 207.455 241.717 207.455 243.914C207.455 246.066 207.211 247.841 206.723 249.239C206.235 250.615 205.481 251.647 204.46 252.334C203.439 253 202.13 253.333 200.533 253.333ZM202.33 247.475C202.885 247.475 203.384 247.342 203.828 247.076C204.271 246.81 204.626 246.41 204.893 245.878C205.159 245.345 205.292 244.691 205.292 243.914C205.292 243.115 205.159 242.45 204.893 241.917C204.626 241.385 204.271 240.985 203.828 240.719C203.384 240.453 202.885 240.32 202.33 240.32C201.775 240.32 201.276 240.453 200.832 240.719C200.388 240.985 200.033 241.385 199.767 241.917C199.501 242.45 199.368 243.115 199.368 243.914C199.368 244.691 199.501 245.345 199.767 245.878C200.033 246.41 200.388 246.81 200.832 247.076C201.276 247.342 201.775 247.475 202.33 247.475ZM205.159 259.457V250.57L205.492 243.914L205.525 237.258V234.795H212.681V259.457H205.159ZM216.015 253V228.305H223.537V253H216.015Z" fill="white"/>
<path d="M290.666 222.974H288.416V226.785H290.666V222.974Z" fill="white"/>
<path d="M290.666 216.139H288.416V219.949H290.666V216.139Z" fill="white"/>
<path d="M290.666 209.326H288.416V213.136H290.666V209.326Z" fill="white"/>
<path d="M290.666 243.505H288.416V247.315H290.666V243.505Z" fill="white"/>
<path d="M290.666 236.67H288.416V240.481H290.666V236.67Z" fill="white"/>
<path d="M290.666 229.857H288.416V233.668H290.666V229.857Z" fill="white"/>
<path d="M290.666 264.036H288.416V267.847H290.666V264.036Z" fill="white"/>
<path d="M290.666 257.201H288.416V261.011H290.666V257.201Z" fill="white"/>
<path d="M290.666 250.388H288.416V254.2H290.666V250.388Z" fill="white"/>
<path d="M290.666 284.566H288.416V288.378H290.666V284.566Z" fill="white"/>
<path d="M290.666 277.731H288.416V281.543H290.666V277.731Z" fill="white"/>
<path d="M290.666 270.919H288.416V274.731H290.666V270.919Z" fill="white"/>
<path d="M406.347 211.265C406.347 216.745 401.906 221.186 396.426 221.186H281.783C276.303 221.186 271.862 216.745 271.862 211.265V166.995C271.862 161.516 276.303 157.074 281.783 157.074H396.426C401.906 157.074 406.347 161.516 406.347 166.995V211.265Z" fill="#4475C4"/>
<path d="M409.657 207.954C409.657 213.433 405.216 217.875 399.736 217.875H285.094C279.615 217.875 275.172 213.434 275.172 207.954V163.684C275.172 158.205 279.614 153.763 285.094 153.763H399.737C405.216 153.763 409.658 158.205 409.658 163.684L409.657 207.954Z" fill="#30569A"/>
<path d="M289.622 194V174.087H299.208C301.067 174.087 302.67 174.39 304.016 174.997C305.382 175.604 306.434 176.476 307.174 177.614C307.913 178.733 308.283 180.061 308.283 181.597C308.283 183.133 307.913 184.461 307.174 185.579C306.434 186.698 305.382 187.571 304.016 188.197C302.67 188.804 301.067 189.107 299.208 189.107H293.348L296.335 186.234V194H289.622ZM296.335 186.973L293.348 183.929H298.782C299.711 183.929 300.394 183.721 300.83 183.304C301.285 182.886 301.513 182.317 301.513 181.597C301.513 180.876 301.285 180.307 300.83 179.89C300.394 179.473 299.711 179.264 298.782 179.264H293.348L296.335 176.22V186.973ZM313.978 199.803C313.124 199.803 312.252 199.671 311.36 199.405C310.488 199.159 309.786 198.827 309.255 198.409L311.389 194C311.711 194.247 312.072 194.446 312.47 194.597C312.887 194.749 313.285 194.825 313.665 194.825C314.234 194.825 314.67 194.702 314.973 194.455C315.277 194.228 315.523 193.877 315.713 193.403L316.367 191.753L316.822 191.127L321.801 178.439H327.888L321.488 194.313C320.919 195.735 320.255 196.845 319.496 197.641C318.757 198.438 317.922 198.997 316.993 199.32C316.083 199.642 315.077 199.803 313.978 199.803ZM315.485 194.711L308.715 178.439H315.315L319.98 190.558L315.485 194.711ZM336.798 194.284C334.655 194.284 332.986 193.772 331.792 192.748C330.597 191.705 329.999 190.112 329.999 187.969V174.94H336.429V187.912C336.429 188.386 336.552 188.756 336.798 189.022C337.064 189.287 337.386 189.42 337.766 189.42C338.316 189.42 338.799 189.278 339.216 188.993L340.753 193.459C340.26 193.744 339.662 193.953 338.96 194.085C338.278 194.218 337.557 194.284 336.798 194.284ZM327.866 183.986V179.292H339.615V183.986H327.866ZM353.183 178.155C354.378 178.155 355.459 178.401 356.426 178.894C357.394 179.368 358.152 180.117 358.702 181.142C359.271 182.166 359.556 183.493 359.556 185.124V194H353.126V186.234C353.126 185.267 352.956 184.584 352.614 184.186C352.273 183.768 351.808 183.56 351.22 183.56C350.784 183.56 350.376 183.664 349.997 183.873C349.637 184.062 349.343 184.385 349.115 184.84C348.907 185.295 348.802 185.911 348.802 186.689V194H342.373V172.892H348.802V182.991L347.266 181.682C347.873 180.506 348.688 179.624 349.713 179.036C350.756 178.449 351.913 178.155 353.183 178.155ZM370.847 194.284C369.083 194.284 367.518 193.943 366.153 193.26C364.806 192.559 363.744 191.601 362.967 190.387C362.189 189.173 361.8 187.779 361.8 186.205C361.8 184.631 362.189 183.237 362.967 182.023C363.744 180.81 364.806 179.861 366.153 179.179C367.518 178.496 369.083 178.155 370.847 178.155C372.611 178.155 374.175 178.496 375.541 179.179C376.906 179.861 377.968 180.81 378.727 182.023C379.504 183.237 379.893 184.631 379.893 186.205C379.893 187.779 379.504 189.173 378.727 190.387C377.968 191.601 376.906 192.559 375.541 193.26C374.175 193.943 372.611 194.284 370.847 194.284ZM370.847 189.278C371.321 189.278 371.748 189.164 372.127 188.936C372.506 188.709 372.81 188.367 373.037 187.912C373.265 187.438 373.379 186.869 373.379 186.205C373.379 185.523 373.265 184.963 373.037 184.527C372.81 184.072 372.506 183.73 372.127 183.503C371.748 183.275 371.321 183.161 370.847 183.161C370.373 183.161 369.946 183.275 369.567 183.503C369.187 183.73 368.884 184.072 368.656 184.527C368.429 184.963 368.315 185.523 368.315 186.205C368.315 186.869 368.429 187.438 368.656 187.912C368.884 188.367 369.187 188.709 369.567 188.936C369.946 189.164 370.373 189.278 370.847 189.278ZM392.716 178.155C393.91 178.155 394.992 178.401 395.959 178.894C396.926 179.368 397.685 180.117 398.235 181.142C398.804 182.166 399.088 183.493 399.088 185.124V194H392.659V186.234C392.659 185.267 392.488 184.584 392.147 184.186C391.805 183.768 391.341 183.56 390.753 183.56C390.317 183.56 389.909 183.664 389.53 183.873C389.169 184.062 388.875 184.385 388.648 184.84C388.439 185.295 388.335 185.911 388.335 186.689V194H381.906V178.439H388.022V182.991L386.799 181.682C387.405 180.506 388.221 179.624 389.245 179.036C390.288 178.449 391.445 178.155 392.716 178.155Z" fill="white"/>
<path d="M186.111 175.556H182.756V177.806H186.111V175.556Z" fill="white"/>
<path d="M180.093 175.556H176.738V177.806H180.093V175.556Z" fill="white"/>
<path d="M174.095 175.556H170.74V177.806H174.095V175.556Z" fill="white"/>
<path d="M204.187 175.556H200.832V177.806H204.187V175.556Z" fill="white"/>
<path d="M198.169 175.556H194.814V177.806H198.169V175.556Z" fill="white"/>
<path d="M192.171 175.556H188.816V177.806H192.171V175.556Z" fill="white"/>
<path d="M222.262 175.556H218.908V177.806H222.262V175.556Z" fill="white"/>
<path d="M216.245 175.556H212.89V177.806H216.245V175.556Z" fill="white"/>
<path d="M210.247 175.556H206.892V177.806H210.247V175.556Z" fill="white"/>
<path d="M171.928 182.395H169.678V186.487H171.928V182.395Z" fill="white"/>
<path d="M171.928 189.733H169.678V193.826H171.928V189.733Z" fill="white"/>
<path d="M171.928 197.049H169.678V201.142H171.928V197.049Z" fill="white"/>
<path opacity="0.4" d="M303.098 299.64H166.036V320.408H303.098V299.64Z" fill="white"/>
<path d="M187.809 313.997C187.106 313.997 186.453 313.887 185.852 313.667C185.258 313.438 184.742 313.116 184.301 312.701C183.869 312.286 183.53 311.799 183.284 311.239C183.038 310.672 182.916 310.049 182.916 309.371C182.916 308.693 183.038 308.075 183.284 307.515C183.53 306.948 183.869 306.456 184.301 306.041C184.742 305.626 185.258 305.308 185.852 305.088C186.453 304.859 187.106 304.745 187.809 304.745C188.631 304.745 189.364 304.889 190.008 305.177C190.66 305.465 191.202 305.88 191.635 306.422L190.033 307.871C189.745 307.532 189.427 307.274 189.08 307.096C188.741 306.918 188.36 306.829 187.936 306.829C187.572 306.829 187.237 306.888 186.932 307.007C186.627 307.126 186.364 307.299 186.144 307.528C185.932 307.748 185.763 308.015 185.635 308.329C185.517 308.642 185.458 308.99 185.458 309.371C185.458 309.752 185.517 310.1 185.635 310.413C185.763 310.727 185.932 310.998 186.144 311.227C186.364 311.447 186.627 311.616 186.932 311.735C187.237 311.854 187.572 311.913 187.936 311.913C188.36 311.913 188.741 311.824 189.08 311.646C189.427 311.468 189.745 311.21 190.033 310.871L191.635 312.32C191.202 312.854 190.66 313.269 190.008 313.565C189.364 313.853 188.631 313.997 187.809 313.997ZM197.057 313.997C196.345 313.997 195.689 313.883 195.087 313.654C194.485 313.425 193.96 313.103 193.511 312.688C193.07 312.265 192.727 311.773 192.481 311.214C192.236 310.655 192.113 310.04 192.113 309.371C192.113 308.702 192.236 308.087 192.481 307.528C192.727 306.969 193.07 306.482 193.511 306.066C193.96 305.643 194.485 305.317 195.087 305.088C195.689 304.859 196.345 304.745 197.057 304.745C197.777 304.745 198.434 304.859 199.027 305.088C199.629 305.317 200.15 305.643 200.59 306.066C201.031 306.482 201.374 306.969 201.62 307.528C201.874 308.087 202.001 308.702 202.001 309.371C202.001 310.04 201.874 310.659 201.62 311.227C201.374 311.786 201.031 312.273 200.59 312.688C200.15 313.103 199.629 313.425 199.027 313.654C198.434 313.883 197.777 313.997 197.057 313.997ZM197.057 311.913C197.396 311.913 197.709 311.854 197.998 311.735C198.294 311.616 198.548 311.447 198.76 311.227C198.98 310.998 199.15 310.727 199.269 310.413C199.396 310.1 199.459 309.752 199.459 309.371C199.459 308.981 199.396 308.634 199.269 308.329C199.15 308.015 198.98 307.748 198.76 307.528C198.548 307.299 198.294 307.126 197.998 307.007C197.709 306.888 197.396 306.829 197.057 306.829C196.718 306.829 196.4 306.888 196.104 307.007C195.816 307.126 195.561 307.299 195.341 307.528C195.129 307.748 194.96 308.015 194.833 308.329C194.714 308.634 194.655 308.981 194.655 309.371C194.655 309.752 194.714 310.1 194.833 310.413C194.96 310.727 195.129 310.998 195.341 311.227C195.561 311.447 195.816 311.616 196.104 311.735C196.4 311.854 196.718 311.913 197.057 311.913ZM203.319 313.819V304.923H205.391L210.297 310.845H209.318V304.923H211.784V313.819H209.712L204.806 307.897H205.785V313.819H203.319ZM213.559 313.819V304.923H215.631L220.537 310.845H219.558V304.923H222.024V313.819H219.952L215.046 307.897H216.025V313.819H213.559ZM226.112 308.367H230.243V310.248H226.112V308.367ZM226.29 311.875H230.942V313.819H223.799V304.923H230.777V306.867H226.29V311.875ZM236.774 313.997C236.071 313.997 235.419 313.887 234.817 313.667C234.224 313.438 233.707 313.116 233.266 312.701C232.834 312.286 232.495 311.799 232.25 311.239C232.004 310.672 231.881 310.049 231.881 309.371C231.881 308.693 232.004 308.075 232.25 307.515C232.495 306.948 232.834 306.456 233.266 306.041C233.707 305.626 234.224 305.308 234.817 305.088C235.419 304.859 236.071 304.745 236.774 304.745C237.596 304.745 238.329 304.889 238.973 305.177C239.625 305.465 240.168 305.88 240.6 306.422L238.998 307.871C238.71 307.532 238.393 307.274 238.045 307.096C237.706 306.918 237.325 306.829 236.901 306.829C236.537 306.829 236.202 306.888 235.897 307.007C235.592 307.126 235.33 307.299 235.109 307.528C234.897 307.748 234.728 308.015 234.601 308.329C234.482 308.642 234.423 308.99 234.423 309.371C234.423 309.752 234.482 310.1 234.601 310.413C234.728 310.727 234.897 310.998 235.109 311.227C235.33 311.447 235.592 311.616 235.897 311.735C236.202 311.854 236.537 311.913 236.901 311.913C237.325 311.913 237.706 311.824 238.045 311.646C238.393 311.468 238.71 311.21 238.998 310.871L240.6 312.32C240.168 312.854 239.625 313.269 238.973 313.565C238.329 313.853 237.596 313.997 236.774 313.997ZM243.541 313.819V306.918H240.809V304.923H248.778V306.918H246.058V313.819H243.541ZM252.028 308.367H256.159V310.248H252.028V308.367ZM252.206 311.875H256.858V313.819H249.715V304.923H256.693V306.867H252.206V311.875ZM258.255 313.819V304.923H262.462C263.445 304.923 264.309 305.105 265.055 305.469C265.8 305.833 266.381 306.346 266.796 307.007C267.219 307.668 267.431 308.456 267.431 309.371C267.431 310.278 267.219 311.066 266.796 311.735C266.381 312.396 265.8 312.909 265.055 313.273C264.309 313.637 263.445 313.819 262.462 313.819H258.255ZM260.771 311.811H262.36C262.868 311.811 263.309 311.718 263.682 311.532C264.063 311.337 264.36 311.057 264.572 310.693C264.783 310.32 264.889 309.879 264.889 309.371C264.889 308.854 264.783 308.414 264.572 308.049C264.36 307.685 264.063 307.409 263.682 307.223C263.309 307.028 262.868 306.931 262.36 306.931H260.771V311.811Z" fill="white"/>
<path d="M246.94 17.5574V8.0317H251.526C252.415 8.0317 253.182 8.17686 253.826 8.46716C254.479 8.75747 254.983 9.17478 255.337 9.71911C255.69 10.2544 255.867 10.8894 255.867 11.6242C255.867 12.3591 255.69 12.9941 255.337 13.5294C254.983 14.0646 254.479 14.4819 253.826 14.7813C253.182 15.0716 252.415 15.2168 251.526 15.2168H248.723L250.152 13.8424V17.5574H246.94ZM250.152 14.1962L248.723 12.7401H251.322C251.767 12.7401 252.093 12.6403 252.302 12.4407C252.52 12.2411 252.629 11.969 252.629 11.6242C252.629 11.2795 252.52 11.0073 252.302 10.8078C252.093 10.6082 251.767 10.5084 251.322 10.5084H248.723L250.152 9.05231V14.1962ZM259.37 17.5574V13.3797L260.105 15.2984L255.778 8.0317H259.166L262.092 12.9987H260.119L263.071 8.0317H266.174L261.874 15.2984L262.582 13.3797V17.5574H259.37ZM268.384 17.5574V10.522H265.595V8.0317H274.386V10.522H271.596V17.5574H268.384ZM281.398 8.0317H284.609V17.5574H281.398V8.0317ZM278.431 17.5574H275.22V8.0317H278.431V17.5574ZM281.616 14.0465H278.214V11.4065H281.616V14.0465ZM291.151 17.7751C290.38 17.7751 289.663 17.6526 289.001 17.4077C288.348 17.1627 287.781 16.818 287.3 16.3735C286.819 15.9199 286.443 15.3891 286.17 14.7813C285.907 14.1735 285.776 13.5112 285.776 12.7945C285.776 12.0688 285.907 11.4065 286.17 10.8078C286.443 10.1999 286.819 9.67375 287.3 9.22922C287.781 8.77561 288.348 8.42634 289.001 8.18139C289.663 7.93645 290.38 7.81397 291.151 7.81397C291.931 7.81397 292.648 7.93645 293.301 8.18139C293.954 8.42634 294.521 8.77561 295.002 9.22922C295.483 9.67375 295.855 10.1999 296.118 10.8078C296.39 11.4065 296.526 12.0688 296.526 12.7945C296.526 13.5112 296.39 14.1735 296.118 14.7813C295.855 15.3891 295.483 15.9199 295.002 16.3735C294.521 16.818 293.954 17.1627 293.301 17.4077C292.648 17.6526 291.931 17.7751 291.151 17.7751ZM291.151 15.176C291.45 15.176 291.727 15.1215 291.981 15.0127C292.244 14.9038 292.471 14.7496 292.661 14.55C292.861 14.3413 293.015 14.0918 293.124 13.8015C293.233 13.5022 293.287 13.1665 293.287 12.7945C293.287 12.4226 293.233 12.0915 293.124 11.8011C293.015 11.5018 292.861 11.2523 292.661 11.0527C292.471 10.844 292.244 10.6853 291.981 10.5764C291.727 10.4676 291.45 10.4131 291.151 10.4131C290.852 10.4131 290.57 10.4676 290.307 10.5764C290.053 10.6853 289.826 10.844 289.627 11.0527C289.436 11.2523 289.287 11.5018 289.178 11.8011C289.069 12.0915 289.014 12.4226 289.014 12.7945C289.014 13.1665 289.069 13.5022 289.178 13.8015C289.287 14.0918 289.436 14.3413 289.627 14.55C289.826 14.7496 290.053 14.9038 290.307 15.0127C290.57 15.1215 290.852 15.176 291.151 15.176ZM297.692 17.5574V8.0317H300.332L305.176 13.8288H303.951V8.0317H307.081V17.5574H304.441L299.597 11.7603H300.822V17.5574H297.692Z" fill="#B0AEFA"/>
<path d="M400.386 124.154C400.386 126.88 398.177 129.09 395.451 129.09C392.725 129.09 390.515 126.88 390.515 124.154C390.515 121.428 392.725 119.218 395.451 119.218C398.177 119.218 400.386 121.428 400.386 124.154Z" stroke="#B0AEFA" stroke-width="3" stroke-miterlimit="10"/>
<path d="M420.477 84.307C420.477 86.299 418.863 87.914 416.87 87.914C414.877 87.914 413.264 86.3 413.264 84.307C413.264 82.314 414.878 80.7 416.87 80.7C418.862 80.7 420.477 82.315 420.477 84.307Z" stroke="#B0AEFA" stroke-width="2" stroke-miterlimit="10"/>
<path d="M61.3338 42.342C61.3338 44.334 59.7198 45.948 57.7278 45.948C55.7358 45.948 54.1218 44.334 54.1218 42.342C54.1218 40.35 55.7358 38.735 57.7278 38.735C59.7198 38.735 61.3338 40.35 61.3338 42.342Z" stroke="#B0AEFA" stroke-width="2" stroke-miterlimit="10"/>
<defs>
<linearGradient id="paint0_linear_77_774" x1="231.446" y1="347.84" x2="231.446" y2="35.7577" gradientUnits="userSpaceOnUse">
<stop stop-color="#3BFFAD" stop-opacity="0.466667"/>
<stop offset="1" stop-color="#2F27CE"/>
</linearGradient>
</defs>
</svg>
