<svg width="204" height="224" viewBox="0 0 204 224" fill="none" xmlns="http://www.w3.org/2000/svg">
<path d="M139.712 5.80252L4.48702 22.6308L4.75561 197.065L141.031 219.528L200.585 206.771L200.853 13.4797L139.712 5.80252Z" fill="#DBDBDB" stroke="#263238" stroke-miterlimit="10" stroke-linecap="round" stroke-linejoin="round"/>
<path d="M194.438 201.375L151.108 194.608" stroke="#263238" stroke-miterlimit="10" stroke-linecap="round" stroke-linejoin="round"/>
<path d="M168.332 89.0282C179.115 89.0282 187.856 76.6202 187.856 61.3142C187.856 46.0081 179.115 33.6002 168.332 33.6002C157.55 33.6002 148.809 46.0081 148.809 61.3142C148.809 76.6202 157.55 89.0282 168.332 89.0282Z" fill="white"/>
<path d="M168.332 86.4141C178.097 86.4141 186.014 75.1765 186.014 61.3142C186.014 47.4519 178.097 36.2143 168.332 36.2143C158.567 36.2143 150.65 47.4519 150.65 61.3142C150.65 75.1765 158.567 86.4141 168.332 86.4141Z" fill="#9AFFDA"/>
<path d="M168.332 70.5229C171.915 70.5229 174.819 66.4 174.819 61.3142C174.819 56.2283 171.915 52.1054 168.332 52.1054C164.749 52.1054 161.845 56.2283 161.845 61.3142C161.845 66.4 164.749 70.5229 168.332 70.5229Z" fill="#263238" stroke="#263238" stroke-miterlimit="10" stroke-linecap="round" stroke-linejoin="round"/>
<path d="M126.829 58.5945L44.286 60.9214V137.138L128.705 146.64V60.34L126.829 58.5945Z" fill="#263238" stroke="#263238" stroke-miterlimit="10" stroke-linecap="round" stroke-linejoin="round"/>
<path d="M37.7702 120.419C48.5528 120.419 57.2937 108.011 57.2937 92.705C57.2937 77.399 48.5528 64.991 37.7702 64.991C26.9877 64.991 18.2468 77.399 18.2468 92.705C18.2468 108.011 26.9877 120.419 37.7702 120.419Z" fill="white"/>
<path d="M37.7702 117.805C47.5356 117.805 55.4521 106.567 55.4521 92.705C55.4521 78.8427 47.5356 67.6051 37.7702 67.6051C28.0048 67.6051 20.0884 78.8427 20.0884 92.705C20.0884 106.567 28.0048 117.805 37.7702 117.805Z" fill="#9AFFDA"/>
<path d="M37.7702 101.914C41.3531 101.914 44.2575 97.7908 44.2575 92.705C44.2575 87.6191 41.3531 83.4962 37.7702 83.4962C34.1874 83.4962 31.283 87.6191 31.283 92.705C31.283 97.7908 34.1874 101.914 37.7702 101.914Z" fill="#263238" stroke="#263238" stroke-miterlimit="10" stroke-linecap="round" stroke-linejoin="round"/>
<path d="M168.332 145.36C179.115 145.36 187.856 132.952 187.856 117.646C187.856 102.34 179.115 89.9318 168.332 89.9318C157.55 89.9318 148.809 102.34 148.809 117.646C148.809 132.952 157.55 145.36 168.332 145.36Z" fill="white"/>
<path d="M168.332 142.746C178.097 142.746 186.014 131.508 186.014 117.646C186.014 103.784 178.097 92.5459 168.332 92.5459C158.567 92.5459 150.65 103.784 150.65 117.646C150.65 131.508 158.567 142.746 168.332 142.746Z" fill="#9AFFDA"/>
<path d="M168.332 126.855C171.915 126.855 174.819 122.732 174.819 117.646C174.819 112.56 171.915 108.437 168.332 108.437C164.749 108.437 161.845 112.56 161.845 117.646C161.845 122.732 164.749 126.855 168.332 126.855Z" fill="#263238" stroke="#263238" stroke-miterlimit="10" stroke-linecap="round" stroke-linejoin="round"/>
<path d="M168.332 201.691C179.115 201.691 187.856 189.283 187.856 173.977C187.856 158.671 179.115 146.263 168.332 146.263C157.55 146.263 148.809 158.671 148.809 173.977C148.809 189.283 157.55 201.691 168.332 201.691Z" fill="white"/>
<path d="M168.332 199.077C178.097 199.077 186.014 187.84 186.014 173.977C186.014 160.115 178.097 148.878 168.332 148.878C158.567 148.878 150.65 160.115 150.65 173.977C150.65 187.84 158.567 199.077 168.332 199.077Z" fill="#9AFFDA"/>
<path d="M168.332 183.186C171.915 183.186 174.819 179.063 174.819 173.977C174.819 168.892 171.915 164.769 168.332 164.769C164.749 164.769 161.845 168.892 161.845 173.977C161.845 179.063 164.749 183.186 168.332 183.186Z" fill="#263238" stroke="#263238" stroke-miterlimit="10" stroke-linecap="round" stroke-linejoin="round"/>
<path d="M97.7493 88.5558C97.3972 88.5558 97.0397 88.4735 96.7028 88.2994C93.5076 86.6478 88.7638 81.6033 85.4227 76.3044C82.2129 71.2126 78.8917 63.7576 81.301 57.1575C82.4722 53.949 87.1788 48.5232 114.411 38.4945C128.998 33.123 143.311 28.9581 143.454 28.9169C144.702 28.557 145.993 29.3064 146.343 30.5953C146.693 31.8835 145.966 33.221 144.72 33.5823C121.591 40.2908 87.9839 52.5709 85.6853 58.868C83.8788 63.8165 87.2053 70.259 89.3488 73.6595C92.8086 79.1476 97.0324 83.054 98.7985 83.9665C99.9557 84.5644 100.425 86.0198 99.8463 87.2169C99.4364 88.0656 98.6088 88.5558 97.7493 88.5558Z" fill="white" stroke="#263238" stroke-miterlimit="10" stroke-linecap="round" stroke-linejoin="round"/>
<path d="M96.0608 102.907C95.6099 102.907 95.1543 102.773 94.7524 102.492C88.092 97.8441 85.6044 88.128 87.3592 73.6142C88.1663 66.9415 91.1937 60.9117 96.6153 55.1789C103.897 47.4798 115.728 40.2373 131.781 33.6523C167.579 18.9664 184.392 23.8649 185.093 24.0802C186.332 24.4634 187.037 25.8133 186.666 27.0947C186.297 28.3733 185.004 29.1034 183.762 28.7257C183.535 28.6599 167.465 24.2255 133.509 38.1559C107.214 48.9428 93.6396 60.7376 92.0101 74.2155C90.4914 86.7706 92.2966 94.9331 97.374 98.4762C98.447 99.2249 98.7295 100.73 98.0053 101.839C97.5523 102.533 96.8135 102.907 96.0608 102.907Z" fill="white" stroke="#263238" stroke-miterlimit="10" stroke-linecap="round" stroke-linejoin="round"/>
<path d="M93.4227 123.42V127.624H108.164L110.197 124.997H116.551V70.0835L110.197 68.7699L107.147 65.8795H95.456L93.4227 72.1855V123.42Z" fill="white" stroke="#263238" stroke-miterlimit="10" stroke-linecap="round" stroke-linejoin="round"/>
<path d="M103.843 72.1855H93.4227V123.42H103.843V72.1855Z" fill="#9AFFDA" stroke="white" stroke-miterlimit="10" stroke-linecap="round" stroke-linejoin="round"/>
<path d="M134.596 97.6713L110.451 95.8319V119.216L133.58 122.632L134.596 97.6713Z" fill="white" stroke="#263238" stroke-miterlimit="10" stroke-linecap="round" stroke-linejoin="round"/>
<path d="M110.725 98.6805L134.309 100.755" stroke="#263238" stroke-miterlimit="10" stroke-linecap="round" stroke-linejoin="round"/>
<path d="M110.474 102.701L134.184 105.424" stroke="#263238" stroke-miterlimit="10" stroke-linecap="round" stroke-linejoin="round"/>
<path d="M110.599 106.591L133.933 109.444" stroke="#263238" stroke-miterlimit="10" stroke-linecap="round" stroke-linejoin="round"/>
<path d="M110.474 110.482L133.933 113.595" stroke="#263238" stroke-miterlimit="10" stroke-linecap="round" stroke-linejoin="round"/>
<path d="M110.223 113.854L133.557 117.226" stroke="#263238" stroke-miterlimit="10" stroke-linecap="round" stroke-linejoin="round"/>
<path d="M110.348 116.966L133.431 120.727" stroke="#263238" stroke-miterlimit="10" stroke-linecap="round" stroke-linejoin="round"/>
<path d="M110.451 95.8319V81.6911L111.979 82.5988V95.8271L110.451 95.8319Z" fill="#263238" stroke="#263238" stroke-miterlimit="10" stroke-linecap="round" stroke-linejoin="round"/>
<path d="M17.63 129.771V187.366L21.4871 187.786V130.4L17.63 129.771Z" fill="#263238" stroke="#263238" stroke-miterlimit="10" stroke-linecap="round" stroke-linejoin="round"/>
<path d="M21.4871 130.4L66.9623 127.973V134.689L134.972 142.454V167.219L122.791 170.787L66.3535 163.232V177.922L132.535 187.996V207.094L21.4871 187.786V130.4Z" fill="#ABABAB" stroke="#263238" stroke-miterlimit="10" stroke-linecap="round" stroke-linejoin="round"/>
<path d="M66.9623 134.689L21.2842 137.955L110.813 144.763L134.972 142.454L66.9623 134.689Z" fill="#ABABAB" stroke="#263238" stroke-miterlimit="10" stroke-linecap="round" stroke-linejoin="round"/>
<path d="M110.813 144.763V168.898L122.791 170.787L134.972 167.219V142.454L110.813 144.763Z" fill="#263238" stroke="#263238" stroke-miterlimit="10" stroke-linecap="round" stroke-linejoin="round"/>
<path d="M21.2842 137.956V158.929L66.3535 163.232L110.813 168.898V144.763L21.2842 137.956Z" fill="#263238" stroke="#263238" stroke-miterlimit="10" stroke-linecap="round" stroke-linejoin="round"/>
<path d="M40.2227 159.991L45.2921 150.165L81.7281 153.932L84.2628 156.716" stroke="white" stroke-miterlimit="10" stroke-linecap="round" stroke-linejoin="round"/>
<path d="M88.8878 147.281C88.8878 147.281 84.2184 149.8 85.2337 159.454C86.249 169.108 95.3844 181.491 102.287 185.898C109.189 190.305 125.431 192.823 127.867 192.614C130.302 192.404 131.724 192.194 131.724 192.194V182.54C131.724 182.54 125.836 184.219 119.543 182.54C113.25 180.861 101.069 163.022 99.6473 159.244C98.2261 155.467 101.474 151.479 101.474 151.479V148.331L88.8878 147.281Z" fill="white" stroke="#263238" stroke-miterlimit="10" stroke-linecap="round" stroke-linejoin="round"/>
<path d="M94.9778 148.121C94.9778 148.121 90.9178 150.219 92.7449 159.453C94.572 168.687 102.287 179.811 111.016 185.687C119.746 191.563 127.664 190.305 127.664 190.305" stroke="#263238" stroke-miterlimit="10" stroke-linecap="round" stroke-linejoin="round"/>
<path d="M101.474 148.33C101.474 148.33 97.2751 151.842 97.6047 157.967C97.9337 164.092 107.15 174.13 111.182 178.554" stroke="#263238" stroke-miterlimit="10" stroke-linecap="round" stroke-linejoin="round"/>
<path d="M96.4528 149.885C96.4528 149.885 94.4778 153.629 95.6298 160.179C96.7817 166.729 107.232 179.574 114.145 184.168" stroke="#263238" stroke-miterlimit="10" stroke-linecap="round" stroke-linejoin="round"/>
<path d="M91.4332 147.419C91.4332 147.419 89.047 148.694 89.2937 155.84C89.5404 162.986 95.0541 174.64 102.295 182.126" stroke="#263238" stroke-miterlimit="10" stroke-linecap="round" stroke-linejoin="round"/>
<path d="M86.9898 157.201C86.9898 157.201 86.1668 164.432 93.9844 175.661" stroke="#263238" stroke-miterlimit="10" stroke-linecap="round" stroke-linejoin="round"/>
<path d="M117.354 184.849C117.354 184.849 124.349 186.465 131.014 186.89" stroke="#263238" stroke-miterlimit="10" stroke-linecap="round" stroke-linejoin="round"/>
<path d="M17.63 129.771L49.0364 127.469L66.9623 127.973L21.4871 130.4L17.63 129.771Z" fill="white" stroke="#263238" stroke-miterlimit="10" stroke-linecap="round" stroke-linejoin="round"/>
<path d="M21.7663 172.003L56.2824 167.236V176.361L21.635 183.715L21.4871 187.786L66.3535 177.922V163.232L53.3843 162.061L21.503 164.24L21.7663 172.003Z" fill="#263238" stroke="#263238" stroke-miterlimit="10" stroke-linecap="round" stroke-linejoin="round"/>
<path d="M24.0642 191.107V199.623C24.0642 201.794 37.2211 203.553 53.4506 203.553C69.68 203.553 82.8369 201.794 82.8369 199.623V191.107H24.0642Z" fill="white"/>
<path d="M53.4506 195.038C69.6802 195.038 82.8369 193.278 82.8369 191.107C82.8369 188.937 69.6802 187.177 53.4506 187.177C37.2209 187.177 24.0642 188.937 24.0642 191.107C24.0642 193.278 37.2209 195.038 53.4506 195.038Z" fill="#9AFFDA"/>
<path d="M58.7574 190.37C58.7574 191.049 55.2816 191.599 50.9948 191.599C46.708 191.599 43.2322 191.049 43.2322 190.37C43.2322 189.692 46.708 189.142 50.9948 189.142C55.2816 189.142 58.7574 189.692 58.7574 190.37Z" fill="#263238" stroke="#263238" stroke-miterlimit="10" stroke-linecap="round" stroke-linejoin="round"/>
<path d="M86.9281 196.131L86.6914 204.644C86.631 206.813 99.7335 211.587 115.956 212.069C132.179 212.551 145.38 211.183 145.44 209.013L145.677 197.878L86.9281 196.131Z" fill="white"/>
<path d="M145.677 197.878C145.617 200.047 132.417 201.415 116.193 200.933C99.9703 200.451 86.8678 198.301 86.9281 196.131C86.9885 193.961 100.189 192.594 116.412 193.076C132.635 193.558 145.737 195.708 145.677 197.878Z" fill="#9AFFDA"/>
<path d="M121.628 196.425C121.609 197.103 118.12 197.55 113.834 197.422C109.549 197.295 106.09 196.642 106.109 195.964C106.128 195.286 109.617 194.84 113.902 194.967C118.188 195.095 121.646 195.747 121.628 196.425Z" fill="#263238" stroke="#263238" stroke-miterlimit="10" stroke-linecap="round" stroke-linejoin="round"/>
<path d="M21.0381 21.4407V30.9113L55.98 35.3162L165.066 25.6255V11.0884L139.712 5.80252L21.0381 21.4407Z" fill="#263238"/>
<path d="M21.0381 30.9113L127.78 19.0178L165.066 25.6255L55.98 35.3162L21.0381 30.9113Z" fill="white"/>
<path d="M86.4699 110.374H77.5162C74.9119 110.374 72.801 108.192 72.801 105.5V90.8141C72.801 88.1218 74.9126 85.9396 77.5162 85.9396H86.4699C89.0742 85.9396 91.1858 88.1225 91.1858 90.8141V105.5C91.1851 108.192 89.0742 110.374 86.4699 110.374Z" fill="white" stroke="#263238" stroke-miterlimit="10" stroke-linecap="round" stroke-linejoin="round"/>
<path d="M84.7582 106.276H79.2272C77.3809 106.276 75.8841 104.729 75.8841 102.82V93.4934C75.8841 91.5847 77.3809 90.0374 79.2272 90.0374H84.7582C86.6045 90.0374 88.1013 91.5847 88.1013 93.4934V102.82C88.1013 104.729 86.6045 106.276 84.7582 106.276Z" fill="#9AFFDA"/>
<path d="M139.958 1L140.763 223.41L202.463 209.544L203 10.9835L139.958 1ZM198.707 203.998L148.006 214.259L148.543 10.1519L198.707 18.7491V203.998Z" fill="#263238" stroke="#263238" stroke-miterlimit="10" stroke-linecap="round" stroke-linejoin="round"/>
<path d="M139.958 1L1 19.8577V199.561L140.763 223.41L139.958 1ZM7.97471 194.569L6.90167 24.8494L130.569 10.9835L131.374 215.923L7.97471 194.569Z" fill="#707070" stroke="#263238" stroke-miterlimit="10" stroke-linecap="round" stroke-linejoin="round"/>
<path d="M56.9668 38.3142V56.683" stroke="#263238" stroke-miterlimit="10" stroke-linecap="round" stroke-linejoin="round"/>
</svg>
