<svg width="588" height="225" viewBox="0 0 588 225" fill="none" xmlns="http://www.w3.org/2000/svg">
<path d="M260.205 188.236L260.144 187.807H259.71H209.301H208.868L208.806 188.236L203.817 223.126L203.735 223.697H204.312H264.7H265.277L265.195 223.126L260.205 188.236Z" fill="white" stroke="black"/>
<path opacity="0.3" d="M208.539 194.549H260.472L259.899 189.857H209.112L208.539 194.549Z" fill="white"/>
<path d="M356.246 189.857H112.766C108.477 189.857 105 186.173 105 181.628V9.22898C105 4.68434 108.477 1.00061 112.766 1.00061H356.246C360.535 1.00061 364.012 4.68434 364.012 9.22898V181.628C364.012 186.172 360.535 189.857 356.246 189.857Z" fill="white"/>
<path d="M117.084 153.992V13.1733H351.928V153.992H117.084Z" fill="#9AFFDA" stroke="black"/>
<g opacity="0.04">
<path d="M127.67 1L105 25.0207V157.645L252.843 1H127.67Z" fill="black"/>
<path d="M273.514 1L105 179.547V181.889C105 186.29 108.367 189.857 112.52 189.857H124.05L302.295 1H273.514Z" fill="black"/>
<path d="M356.491 1H322.965L144.721 189.857H269.893L364.012 90.1351V8.96873C364.012 4.56791 360.645 1 356.491 1Z" fill="white"/>
<path d="M319.345 189.857L364.012 142.531V112.036L290.564 189.857H319.345Z" fill="black"/>
</g>
<path d="M364.012 181.889V164.541H105V181.889C105 186.29 108.367 189.857 112.52 189.857H356.491C360.645 189.857 364.012 186.289 364.012 181.889Z" fill="white"/>
<path d="M356.525 1.68911C360.295 1.68911 363.362 4.93882 363.362 8.93359V181.924C363.362 185.919 360.295 189.168 356.525 189.168H112.487C108.717 189.168 105.65 185.919 105.65 181.924V8.93359C105.65 4.93882 108.717 1.68911 112.487 1.68911H356.525ZM356.525 1H112.487C108.352 1 105 4.55164 105 8.93294V181.923C105 186.305 108.352 189.856 112.487 189.856H356.525C360.66 189.856 364.012 186.305 364.012 181.923V8.93359C364.012 4.55229 360.66 1 356.525 1Z" fill="black"/>
<path d="M193.364 223.697H275.648C276.407 223.697 276.974 223.053 276.974 222.321V221.601C276.974 220.869 276.407 220.225 275.648 220.225H193.364C192.605 220.225 192.038 220.869 192.038 221.601V222.321C192.038 223.053 192.605 223.697 193.364 223.697Z" fill="white" stroke="black"/>
<path d="M523.712 5.80252L388.487 22.6308L388.756 197.065L525.031 219.528L584.585 206.771L584.853 13.4797L523.712 5.80252Z" fill="#DBDBDB" stroke="#263238" stroke-miterlimit="10" stroke-linecap="round" stroke-linejoin="round"/>
<path d="M578.438 201.375L535.108 194.608" stroke="#263238" stroke-miterlimit="10" stroke-linecap="round" stroke-linejoin="round"/>
<path d="M552.332 89.0282C563.115 89.0282 571.856 76.6202 571.856 61.3142C571.856 46.0081 563.115 33.6002 552.332 33.6002C541.55 33.6002 532.809 46.0081 532.809 61.3142C532.809 76.6202 541.55 89.0282 552.332 89.0282Z" fill="white"/>
<path d="M552.332 86.4141C562.097 86.4141 570.014 75.1765 570.014 61.3142C570.014 47.4519 562.097 36.2143 552.332 36.2143C542.567 36.2143 534.65 47.4519 534.65 61.3142C534.65 75.1765 542.567 86.4141 552.332 86.4141Z" fill="#9AFFDA"/>
<path d="M552.332 70.5229C555.915 70.5229 558.819 66.4 558.819 61.3142C558.819 56.2283 555.915 52.1054 552.332 52.1054C548.749 52.1054 545.845 56.2283 545.845 61.3142C545.845 66.4 548.749 70.5229 552.332 70.5229Z" fill="#263238" stroke="#263238" stroke-miterlimit="10" stroke-linecap="round" stroke-linejoin="round"/>
<path d="M510.829 58.5945L428.286 60.9214V137.138L512.705 146.64V60.34L510.829 58.5945Z" fill="#263238" stroke="#263238" stroke-miterlimit="10" stroke-linecap="round" stroke-linejoin="round"/>
<path d="M421.77 120.419C432.553 120.419 441.294 108.011 441.294 92.705C441.294 77.399 432.553 64.991 421.77 64.991C410.988 64.991 402.247 77.399 402.247 92.705C402.247 108.011 410.988 120.419 421.77 120.419Z" fill="white"/>
<path d="M421.77 117.805C431.536 117.805 439.452 106.567 439.452 92.705C439.452 78.8427 431.536 67.6051 421.77 67.6051C412.005 67.6051 404.088 78.8427 404.088 92.705C404.088 106.567 412.005 117.805 421.77 117.805Z" fill="#9AFFDA"/>
<path d="M421.77 101.914C425.353 101.914 428.258 97.7908 428.258 92.705C428.258 87.6191 425.353 83.4962 421.77 83.4962C418.187 83.4962 415.283 87.6191 415.283 92.705C415.283 97.7908 418.187 101.914 421.77 101.914Z" fill="#263238" stroke="#263238" stroke-miterlimit="10" stroke-linecap="round" stroke-linejoin="round"/>
<path d="M552.332 145.36C563.115 145.36 571.856 132.952 571.856 117.646C571.856 102.34 563.115 89.9318 552.332 89.9318C541.55 89.9318 532.809 102.34 532.809 117.646C532.809 132.952 541.55 145.36 552.332 145.36Z" fill="white"/>
<path d="M552.332 142.746C562.097 142.746 570.014 131.508 570.014 117.646C570.014 103.784 562.097 92.5459 552.332 92.5459C542.567 92.5459 534.65 103.784 534.65 117.646C534.65 131.508 542.567 142.746 552.332 142.746Z" fill="#9AFFDA"/>
<path d="M552.332 126.855C555.915 126.855 558.819 122.732 558.819 117.646C558.819 112.56 555.915 108.437 552.332 108.437C548.749 108.437 545.845 112.56 545.845 117.646C545.845 122.732 548.749 126.855 552.332 126.855Z" fill="#263238" stroke="#263238" stroke-miterlimit="10" stroke-linecap="round" stroke-linejoin="round"/>
<path d="M552.332 201.691C563.115 201.691 571.856 189.283 571.856 173.977C571.856 158.671 563.115 146.263 552.332 146.263C541.55 146.263 532.809 158.671 532.809 173.977C532.809 189.283 541.55 201.691 552.332 201.691Z" fill="white"/>
<path d="M552.332 199.077C562.097 199.077 570.014 187.84 570.014 173.977C570.014 160.115 562.097 148.878 552.332 148.878C542.567 148.878 534.65 160.115 534.65 173.977C534.65 187.84 542.567 199.077 552.332 199.077Z" fill="#9AFFDA"/>
<path d="M552.332 183.186C555.915 183.186 558.819 179.063 558.819 173.977C558.819 168.892 555.915 164.769 552.332 164.769C548.749 164.769 545.845 168.892 545.845 173.977C545.845 179.063 548.749 183.186 552.332 183.186Z" fill="#263238" stroke="#263238" stroke-miterlimit="10" stroke-linecap="round" stroke-linejoin="round"/>
<path d="M481.749 88.5558C481.397 88.5558 481.04 88.4735 480.703 88.2994C477.508 86.6478 472.764 81.6033 469.423 76.3044C466.213 71.2126 462.892 63.7576 465.301 57.1575C466.472 53.949 471.179 48.5232 498.411 38.4945C512.998 33.123 527.311 28.9581 527.454 28.9169C528.702 28.557 529.993 29.3064 530.343 30.5953C530.693 31.8835 529.966 33.221 528.72 33.5823C505.591 40.2908 471.984 52.5709 469.685 58.868C467.879 63.8165 471.205 70.259 473.349 73.6595C476.809 79.1476 481.032 83.054 482.798 83.9665C483.956 84.5644 484.425 86.0198 483.846 87.2169C483.436 88.0656 482.609 88.5558 481.749 88.5558Z" fill="white" stroke="#263238" stroke-miterlimit="10" stroke-linecap="round" stroke-linejoin="round"/>
<path d="M480.061 102.907C479.61 102.907 479.154 102.773 478.752 102.492C472.092 97.8441 469.604 88.128 471.359 73.6142C472.166 66.9415 475.194 60.9117 480.615 55.1789C487.897 47.4798 499.728 40.2373 515.781 33.6523C551.579 18.9664 568.392 23.8649 569.093 24.0802C570.332 24.4634 571.037 25.8133 570.666 27.0947C570.297 28.3733 569.004 29.1034 567.762 28.7257C567.535 28.6599 551.465 24.2255 517.509 38.1559C491.214 48.9428 477.64 60.7376 476.01 74.2155C474.491 86.7706 476.297 94.9331 481.374 98.4762C482.447 99.2249 482.729 100.73 482.005 101.839C481.552 102.533 480.814 102.907 480.061 102.907Z" fill="white" stroke="#263238" stroke-miterlimit="10" stroke-linecap="round" stroke-linejoin="round"/>
<path d="M477.423 123.42V127.624H492.164L494.197 124.997H500.551V70.0835L494.197 68.7699L491.147 65.8795H479.456L477.423 72.1855V123.42Z" fill="white" stroke="#263238" stroke-miterlimit="10" stroke-linecap="round" stroke-linejoin="round"/>
<path d="M487.843 72.1855H477.423V123.42H487.843V72.1855Z" fill="#9AFFDA" stroke="white" stroke-miterlimit="10" stroke-linecap="round" stroke-linejoin="round"/>
<path d="M518.596 97.6713L494.451 95.8319V119.216L517.58 122.632L518.596 97.6713Z" fill="white" stroke="#263238" stroke-miterlimit="10" stroke-linecap="round" stroke-linejoin="round"/>
<path d="M494.725 98.6805L518.309 100.755" stroke="#263238" stroke-miterlimit="10" stroke-linecap="round" stroke-linejoin="round"/>
<path d="M494.474 102.701L518.184 105.424" stroke="#263238" stroke-miterlimit="10" stroke-linecap="round" stroke-linejoin="round"/>
<path d="M494.599 106.591L517.933 109.444" stroke="#263238" stroke-miterlimit="10" stroke-linecap="round" stroke-linejoin="round"/>
<path d="M494.474 110.482L517.933 113.595" stroke="#263238" stroke-miterlimit="10" stroke-linecap="round" stroke-linejoin="round"/>
<path d="M494.223 113.854L517.557 117.226" stroke="#263238" stroke-miterlimit="10" stroke-linecap="round" stroke-linejoin="round"/>
<path d="M494.348 116.966L517.431 120.727" stroke="#263238" stroke-miterlimit="10" stroke-linecap="round" stroke-linejoin="round"/>
<path d="M494.451 95.8319V81.6911L495.979 82.5988V95.8271L494.451 95.8319Z" fill="#263238" stroke="#263238" stroke-miterlimit="10" stroke-linecap="round" stroke-linejoin="round"/>
<path d="M401.63 129.771V187.366L405.487 187.786V130.4L401.63 129.771Z" fill="#263238" stroke="#263238" stroke-miterlimit="10" stroke-linecap="round" stroke-linejoin="round"/>
<path d="M405.487 130.4L450.962 127.973V134.689L518.972 142.454V167.219L506.791 170.787L450.353 163.232V177.922L516.535 187.996V207.094L405.487 187.786V130.4Z" fill="#ABABAB" stroke="#263238" stroke-miterlimit="10" stroke-linecap="round" stroke-linejoin="round"/>
<path d="M450.962 134.689L405.284 137.955L494.813 144.763L518.972 142.454L450.962 134.689Z" fill="#ABABAB" stroke="#263238" stroke-miterlimit="10" stroke-linecap="round" stroke-linejoin="round"/>
<path d="M494.813 144.763V168.898L506.791 170.787L518.972 167.219V142.454L494.813 144.763Z" fill="#263238" stroke="#263238" stroke-miterlimit="10" stroke-linecap="round" stroke-linejoin="round"/>
<path d="M405.284 137.956V158.929L450.353 163.232L494.813 168.898V144.763L405.284 137.956Z" fill="#263238" stroke="#263238" stroke-miterlimit="10" stroke-linecap="round" stroke-linejoin="round"/>
<path d="M424.223 159.991L429.292 150.165L465.728 153.932L468.263 156.716" stroke="white" stroke-miterlimit="10" stroke-linecap="round" stroke-linejoin="round"/>
<path d="M472.888 147.281C472.888 147.281 468.218 149.8 469.234 159.454C470.249 169.108 479.384 181.491 486.287 185.898C493.189 190.305 509.431 192.823 511.867 192.614C514.302 192.404 515.724 192.194 515.724 192.194V182.54C515.724 182.54 509.836 184.219 503.543 182.54C497.25 180.861 485.069 163.022 483.647 159.244C482.226 155.467 485.474 151.479 485.474 151.479V148.331L472.888 147.281Z" fill="white" stroke="#263238" stroke-miterlimit="10" stroke-linecap="round" stroke-linejoin="round"/>
<path d="M478.978 148.121C478.978 148.121 474.918 150.219 476.745 159.453C478.572 168.687 486.287 179.811 495.016 185.687C503.746 191.563 511.664 190.305 511.664 190.305" stroke="#263238" stroke-miterlimit="10" stroke-linecap="round" stroke-linejoin="round"/>
<path d="M485.474 148.33C485.474 148.33 481.275 151.842 481.605 157.967C481.934 164.092 491.15 174.13 495.182 178.554" stroke="#263238" stroke-miterlimit="10" stroke-linecap="round" stroke-linejoin="round"/>
<path d="M480.453 149.885C480.453 149.885 478.478 153.629 479.63 160.179C480.782 166.729 491.232 179.574 498.145 184.168" stroke="#263238" stroke-miterlimit="10" stroke-linecap="round" stroke-linejoin="round"/>
<path d="M475.433 147.419C475.433 147.419 473.047 148.694 473.294 155.84C473.54 162.986 479.054 174.64 486.295 182.126" stroke="#263238" stroke-miterlimit="10" stroke-linecap="round" stroke-linejoin="round"/>
<path d="M470.99 157.201C470.99 157.201 470.167 164.432 477.984 175.661" stroke="#263238" stroke-miterlimit="10" stroke-linecap="round" stroke-linejoin="round"/>
<path d="M501.354 184.849C501.354 184.849 508.349 186.465 515.014 186.89" stroke="#263238" stroke-miterlimit="10" stroke-linecap="round" stroke-linejoin="round"/>
<path d="M401.63 129.771L433.036 127.469L450.962 127.973L405.487 130.4L401.63 129.771Z" fill="white" stroke="#263238" stroke-miterlimit="10" stroke-linecap="round" stroke-linejoin="round"/>
<path d="M405.766 172.003L440.282 167.236V176.361L405.635 183.715L405.487 187.786L450.353 177.922V163.232L437.384 162.061L405.503 164.24L405.766 172.003Z" fill="#263238" stroke="#263238" stroke-miterlimit="10" stroke-linecap="round" stroke-linejoin="round"/>
<path d="M408.064 191.107V199.623C408.064 201.794 421.221 203.553 437.451 203.553C453.68 203.553 466.837 201.794 466.837 199.623V191.107H408.064Z" fill="white"/>
<path d="M437.451 195.038C453.68 195.038 466.837 193.278 466.837 191.107C466.837 188.937 453.68 187.177 437.451 187.177C421.221 187.177 408.064 188.937 408.064 191.107C408.064 193.278 421.221 195.038 437.451 195.038Z" fill="#9AFFDA"/>
<path d="M442.757 190.37C442.757 191.049 439.282 191.599 434.995 191.599C430.708 191.599 427.232 191.049 427.232 190.37C427.232 189.692 430.708 189.142 434.995 189.142C439.282 189.142 442.757 189.692 442.757 190.37Z" fill="#263238" stroke="#263238" stroke-miterlimit="10" stroke-linecap="round" stroke-linejoin="round"/>
<path d="M470.928 196.131L470.691 204.644C470.631 206.813 483.734 211.587 499.956 212.069C516.179 212.551 529.38 211.183 529.44 209.013L529.677 197.878L470.928 196.131Z" fill="white"/>
<path d="M529.677 197.878C529.617 200.047 516.417 201.415 500.193 200.933C483.97 200.451 470.868 198.301 470.928 196.131C470.988 193.961 484.189 192.594 500.412 193.076C516.635 193.558 529.737 195.708 529.677 197.878Z" fill="#9AFFDA"/>
<path d="M505.628 196.425C505.609 197.103 502.12 197.55 497.834 197.422C493.549 197.295 490.09 196.642 490.109 195.964C490.128 195.286 493.617 194.84 497.902 194.967C502.188 195.095 505.646 195.747 505.628 196.425Z" fill="#263238" stroke="#263238" stroke-miterlimit="10" stroke-linecap="round" stroke-linejoin="round"/>
<path d="M405.038 21.4407V30.9113L439.98 35.3162L549.066 25.6255V11.0884L523.712 5.80252L405.038 21.4407Z" fill="#263238"/>
<path d="M405.038 30.9113L511.78 19.0178L549.066 25.6255L439.98 35.3162L405.038 30.9113Z" fill="white"/>
<path d="M470.47 110.374H461.516C458.912 110.374 456.801 108.192 456.801 105.5V90.8141C456.801 88.1218 458.913 85.9396 461.516 85.9396H470.47C473.074 85.9396 475.186 88.1225 475.186 90.8141V105.5C475.185 108.192 473.074 110.374 470.47 110.374Z" fill="white" stroke="#263238" stroke-miterlimit="10" stroke-linecap="round" stroke-linejoin="round"/>
<path d="M468.758 106.276H463.227C461.381 106.276 459.884 104.729 459.884 102.82V93.4934C459.884 91.5847 461.381 90.0374 463.227 90.0374H468.758C470.605 90.0374 472.101 91.5847 472.101 93.4934V102.82C472.101 104.729 470.605 106.276 468.758 106.276Z" fill="#9AFFDA"/>
<path d="M523.958 1L524.763 223.41L586.463 209.544L587 10.9835L523.958 1ZM582.707 203.998L532.006 214.259L532.543 10.1519L582.707 18.7491V203.998Z" fill="#263238" stroke="#263238" stroke-miterlimit="10" stroke-linecap="round" stroke-linejoin="round"/>
<path d="M523.958 1L385 19.8577V199.561L524.763 223.41L523.958 1ZM391.975 194.569L390.902 24.8494L514.569 10.9835L515.374 215.923L391.975 194.569Z" fill="#707070" stroke="#263238" stroke-miterlimit="10" stroke-linecap="round" stroke-linejoin="round"/>
<path d="M440.967 38.3142V56.683" stroke="#263238" stroke-miterlimit="10" stroke-linecap="round" stroke-linejoin="round"/>
<path d="M24.6646 84C22.0268 84 19.8907 86.0498 19.8907 88.5789V183.277C19.8907 185.804 22.0268 187.851 24.6646 187.851H185.331C187.968 187.851 190.11 185.804 190.11 183.277V88.5789C190.11 86.0498 187.968 84 185.331 84H24.6646ZM178.858 177.611H30.8263V93.9431H178.858V177.611Z" fill="#616E7D"/>
<path d="M188.403 189.827H21.5962C20.4946 189.827 19.4244 190.244 18.5693 191.017L1.76455 206.155C-1.71335 209.283 0.294163 215.485 4.78682 215.485H205.215C209.705 215.485 211.713 209.283 208.237 206.155L191.426 191.017C190.577 190.244 189.505 189.827 188.403 189.827Z" fill="#616E7D"/>
<path d="M178.858 177.611V93.9431H30.8263V177.611H178.858V177.611ZM103.417 147.537H71.3751V143.722H103.417V147.537ZM139.823 168.564H105.425V165.67H139.823V168.564ZM171.476 163.596H105.425V160.704H171.476V163.596ZM171.476 158.628H105.425V155.739H171.476V158.628ZM171.476 153.665H105.425V150.77H171.476V153.665ZM105.425 147.537V143.722H137.473V147.537H105.425ZM171.523 147.537H139.476V143.722H171.523V147.537ZM37.3247 101.049H171.523V140.288H37.3247V101.049ZM37.3247 143.722H69.3678V147.537H37.3247V143.722ZM37.3247 150.994H103.377V170.261H37.3247V150.994Z" fill="white"/>
<path d="M171.523 101.049H37.3246V140.288H171.523V101.049Z" fill="#D1FFEE"/>
<path d="M69.3678 143.722H37.3246V147.537H69.3678V143.722Z" fill="#9AFFDA"/>
<path d="M103.377 150.994H37.3246V170.261H103.377V150.994Z" fill="#9AFFDA"/>
<path d="M103.417 143.722H71.3751V147.537H103.417V143.722Z" fill="#9AFFDA"/>
<path d="M137.473 143.722H105.425V147.537H137.473V143.722Z" fill="#9AFFDA"/>
<path d="M171.476 150.77H105.425V153.665H171.476V150.77Z" fill="#D1FFEE"/>
<path d="M171.476 155.739H105.425V158.628H171.476V155.739Z" fill="#D1FFEE"/>
<path d="M171.476 160.704H105.425V163.596H171.476V160.704Z" fill="#D1FFEE"/>
<path d="M139.823 165.67H105.425V168.564H139.823V165.67Z" fill="#D1FFEE"/>
<path d="M171.523 143.722H139.476V147.537H171.523V143.722Z" fill="#9AFFDA"/>
<path d="M345.956 210.121C345.956 213.112 343.297 215.563 340.046 215.563H313.91C310.657 215.563 308 213.112 308 210.121V147.442C308 144.449 310.657 142 313.91 142H340.046C343.297 142 345.956 144.45 345.956 147.442V210.121Z" fill="#3E3D40"/>
<path d="M343.171 152.046H310.785V205.831H343.171V152.046Z" fill="#ECEDED"/>
<path d="M329.642 210.173C329.642 211.529 328.45 212.628 326.979 212.628C325.507 212.628 324.313 211.529 324.313 210.173C324.313 208.82 325.507 207.72 326.979 207.72C328.45 207.72 329.642 208.82 329.642 210.173Z" fill="#87888A"/>
<path d="M329.834 148.592C329.834 148.994 329.473 149.326 329.035 149.326H324.066C323.627 149.326 323.266 148.995 323.266 148.592C323.266 148.189 323.626 147.86 324.066 147.86H329.035C329.473 147.86 329.834 148.189 329.834 148.592Z" fill="#58585A"/>
</svg>
